<?xml version="1.0" standalone="no"?>
<!DOCTYPE svg PUBLIC "-//W3C//DTD SVG 20010904//EN"
 "http://www.w3.org/TR/2001/REC-SVG-20010904/DTD/svg10.dtd">
<svg version="1.0" xmlns="http://www.w3.org/2000/svg"
 width="512.000000pt" height="512.000000pt" viewBox="0 0 512.000000 512.000000"
 preserveAspectRatio="xMidYMid meet">
<metadata>
Created by potrace 1.16, written by Peter Selinger 2001-2019
</metadata>
<g transform="translate(0.000000,512.000000) scale(0.100000,-0.100000)"
fill="#000000" stroke="none">
<path d="M4230 5094 c-47 -21 -151 -120 -712 -682 l-658 -657 0 270 c0 262 -1
272 -24 320 -34 73 -69 110 -138 144 l-61 31 -376 0 c-373 0 -376 0 -426 -24
-73 -34 -110 -69 -144 -138 l-31 -61 0 -191 0 -191 -187 0 c-166 0 -198 -3
-273 -23 -174 -48 -325 -135 -451 -261 -124 -124 -218 -285 -256 -439 l-18
-72 -126 0 c-120 0 -128 -1 -187 -31 -69 -34 -104 -71 -138 -144 -23 -47 -24
-61 -24 -256 l0 -206 31 -61 c32 -66 67 -101 133 -134 22 -11 42 -21 43 -22 2
-2 84 -461 183 -1022 99 -560 187 -1039 197 -1064 9 -25 38 -67 67 -96 93 -92
-86 -84 1906 -84 1992 0 1813 -8 1906 84 29 29 58 71 67 96 10 25 98 504 197
1064 100 561 182 1021 183 1022 1 1 21 11 43 22 66 33 101 68 133 134 l31 61
0 206 c0 195 -1 209 -24 256 -34 73 -69 110 -138 144 l-61 31 -219 0 -218 0 0
288 0 289 -31 61 c-34 69 -71 104 -144 138 -46 22 -63 24 -220 24 l-170 0 357
358 c405 406 408 409 408 543 0 65 -4 85 -31 137 -34 69 -71 104 -144 138 -72
34 -180 33 -255 -2z m195 -209 c19 -18 25 -35 25 -67 l0 -43 -923 -922 -922
-923 -41 0 c-57 0 -94 37 -94 94 l0 41 923 922 922 923 43 0 c32 0 49 -6 67
-25z m-1813 -587 c16 -11 31 -34 37 -55 7 -23 11 -168 11 -363 l0 -325 -132
-132 -131 -131 -44 87 c-85 171 -250 339 -417 426 l-77 40 3 200 c3 224 9 246
71 264 18 6 166 9 342 8 277 -2 314 -4 337 -19z m-982 -605 c261 -53 491 -260
581 -520 l18 -53 -769 0 -769 0 8 28 c27 94 93 211 167 299 121 141 351 254
544 265 69 4 137 -2 220 -19z m2582 5 c42 -27 48 -72 48 -335 l0 -243 -582 0
-583 0 300 300 300 301 245 -3 c214 -3 249 -5 272 -20z m-1927 -811 c28 -59
74 -105 137 -136 52 -27 72 -31 137 -31 103 0 161 28 261 125 l76 75 955 0
c632 0 967 -4 992 -11 64 -17 72 -41 72 -214 0 -106 -4 -159 -13 -176 -30 -57
24 -54 -1023 -57 l-967 -2 -26 -27 c-37 -37 -37 -109 0 -147 l27 -26 888 0
c768 0 889 -2 889 -14 0 -8 -78 -459 -174 -1001 -131 -744 -179 -991 -192
-1006 -9 -10 -33 -23 -53 -29 -50 -14 -3372 -14 -3422 0 -20 6 -44 19 -53 29
-13 15 -61 262 -192 1006 -96 542 -174 993 -174 1001 0 12 121 14 889 14 l888
0 27 26 c37 38 37 110 0 147 l-26 27 -967 2 c-923 3 -967 4 -993 22 -40 26
-50 79 -46 231 3 148 14 178 71 194 19 5 436 10 1014 10 l982 1 16 -33z"/>
<path d="M2486 2434 c-21 -21 -26 -36 -26 -74 0 -38 5 -53 26 -74 21 -21 36
-26 74 -26 38 0 53 5 74 26 21 21 26 36 26 74 0 38 -5 53 -26 74 -21 21 -36
26 -74 26 -38 0 -53 -5 -74 -26z"/>
<path d="M1286 1834 l-26 -27 0 -577 0 -577 26 -27 c38 -37 110 -37 148 0 l26
27 0 577 0 577 -26 27 c-21 21 -36 26 -74 26 -38 0 -53 -5 -74 -26z"/>
<path d="M1886 1834 l-26 -27 0 -577 0 -577 26 -27 c38 -37 110 -37 148 0 l26
27 0 577 0 577 -26 27 c-21 21 -36 26 -74 26 -38 0 -53 -5 -74 -26z"/>
<path d="M2486 1834 l-26 -27 0 -577 0 -577 26 -27 c38 -37 110 -37 148 0 l26
27 0 577 0 577 -26 27 c-21 21 -36 26 -74 26 -38 0 -53 -5 -74 -26z"/>
<path d="M3086 1834 l-26 -27 0 -577 0 -577 26 -27 c38 -37 110 -37 148 0 l26
27 0 577 0 577 -26 27 c-21 21 -36 26 -74 26 -38 0 -53 -5 -74 -26z"/>
<path d="M3686 1834 l-26 -27 0 -577 0 -577 26 -27 c38 -37 110 -37 148 0 l26
27 0 577 0 577 -26 27 c-21 21 -36 26 -74 26 -38 0 -53 -5 -74 -26z"/>
</g>
</svg>
